<?xml version="1.0" standalone="no"?>
<!DOCTYPE svg PUBLIC "-//W3C//DTD SVG 20010904//EN"
 "http://www.w3.org/TR/2001/REC-SVG-20010904/DTD/svg10.dtd">
<svg version="1.0" xmlns="http://www.w3.org/2000/svg"
 width="512.000000pt" height="512.000000pt" viewBox="0 0 512.000000 512.000000"
 preserveAspectRatio="xMidYMid meet">

<g transform="translate(0.000000,512.000000) scale(0.100000,-0.100000)"
fill="#000000" stroke="none">
<path d="M3600 4769 c-119 -23 -236 -115 -288 -227 -36 -78 -43 -212 -15 -288
21 -53 318 -575 361 -633 37 -50 119 -84 191 -79 52 4 81 18 356 177 330 190
376 226 428 331 30 60 32 72 32 170 0 93 -3 112 -27 162 -37 79 -108 152 -185
190 -113 55 -264 50 -368 -14 -43 -26 -50 -23 -78 25 -54 92 -162 166 -272
186 -66 12 -72 12 -135 0z m140 -169 c55 -15 107 -65 156 -151 73 -126 95
-133 212 -64 42 25 94 50 116 56 143 39 302 -101 282 -249 -6 -47 -41 -115
-72 -143 -21 -18 -557 -331 -587 -342 -44 -17 -53 -3 -262 358 -126 217 -139
245 -143 296 -5 72 11 121 57 172 62 69 149 93 241 67z"/>
<path d="M1656 4569 c-21 -5 -55 -19 -75 -30 l-37 -21 -49 26 c-71 38 -161 37
-232 -4 -64 -36 -99 -87 -115 -163 -10 -48 -9 -64 6 -114 17 -52 33 -72 155
-196 75 -76 148 -145 163 -153 47 -24 119 -18 164 15 65 47 269 263 289 306
27 56 25 147 -4 204 -52 100 -161 154 -265 130z m-196 -204 c38 -34 59 -45 83
-45 25 0 47 12 86 45 60 51 91 56 126 20 46 -46 36 -67 -93 -198 l-118 -119
-109 104 c-116 110 -139 146 -124 188 25 65 79 67 149 5z"/>
<path d="M2285 3946 c-230 -53 -415 -196 -543 -421 -34 -60 -66 -116 -71 -123
-6 -11 -37 3 -134 58 -69 39 -157 83 -197 96 -320 112 -683 -7 -881 -289 -157
-224 -182 -525 -64 -772 45 -94 122 -194 200 -258 59 -49 1122 -672 1299 -762
71 -36 88 -40 167 -43 64 -3 102 1 141 13 68 23 150 77 187 123 43 55 740
1266 768 1334 41 101 56 200 50 323 -10 206 -77 356 -227 505 -104 104 -190
158 -325 200 -89 28 -281 36 -370 16z"/>
<path d="M4156 2755 c-60 -23 -99 -57 -130 -114 -33 -62 -38 -143 -12 -206 18
-43 270 -305 318 -331 32 -17 85 -18 125 -4 46 18 291 267 319 325 48 100 25
207 -59 281 -87 76 -199 85 -289 22 -28 -19 -28 -19 -73 7 -56 33 -142 42
-199 20z"/>
<path d="M3798 1831 c-117 -38 -206 -109 -272 -221 -22 -36 -40 -66 -41 -68
-1 -1 -29 13 -62 32 -93 52 -157 70 -253 70 -218 1 -403 -141 -460 -354 -18
-67 -14 -185 8 -257 52 -167 98 -206 550 -466 198 -114 376 -212 394 -218 88
-25 189 2 252 65 54 54 451 744 477 827 37 119 19 276 -44 379 -60 99 -168
182 -276 214 -73 21 -201 20 -273 -3z m277 -180 c73 -36 107 -72 144 -151 30
-67 35 -164 9 -225 -23 -57 -405 -715 -430 -742 -37 -39 -86 -31 -196 32 -54
31 -104 59 -112 64 -8 4 -126 72 -262 150 -197 113 -257 153 -293 193 -57 64
-79 134 -73 228 9 117 73 206 186 257 46 22 65 25 135 22 80 -4 86 -6 194 -66
160 -90 170 -88 253 57 58 101 84 133 129 163 100 66 205 72 316 18z"/>
<path d="M1130 1411 c-74 -24 -138 -80 -164 -143 -20 -48 -20 -138 -1 -185 17
-41 272 -305 317 -329 15 -8 45 -14 68 -14 23 0 53 6 68 14 45 24 300 288 317
329 21 50 19 142 -4 192 -10 23 -39 59 -65 82 -79 70 -182 80 -274 28 l-44
-25 -43 26 c-47 27 -132 39 -175 25z"/>
</g>
</svg>
